<svg width="173" height="48" viewBox="0 0 173 48" fill="none" xmlns="http://www.w3.org/2000/svg">
<path d="M23.8306 0C10.6661 0 0 10.729 0 23.9711C0 37.2132 10.6661 47.9423 23.8306 47.9423C36.995 47.9423 47.6611 37.2132 47.6611 23.9711C47.6611 10.729 36.995 0 23.8306 0ZM19.4584 32.9361C18.7017 34.6277 17.0562 35.6184 15.3265 35.6184C14.7019 35.6184 14.0653 35.4855 13.4648 35.2197C11.1826 34.1806 10.1736 31.4863 11.1946 29.1906L18.6537 12.5534C19.6866 10.2578 22.3652 9.2429 24.6473 10.2699C26.9295 11.309 27.9385 14.0033 26.9175 16.2989L19.4584 32.9361ZM31.3137 36.1258C28.2508 36.1258 25.7524 33.6248 25.7524 30.5318C25.7524 27.4387 28.2387 24.9377 31.3137 24.9377C34.3886 24.9377 36.8749 27.4387 36.8749 30.5318C36.8749 33.6248 34.3886 36.1258 31.3137 36.1258Z" fill="url(#paint0_linear_2013_1998)"/>
<path d="M75.2512 33.359H64.6331L62.9275 38.361H55L65.8823 9.59326H74.002L84.8843 38.361H76.9568L75.2512 33.359ZM73.2813 27.6803L69.9421 18.0991L66.603 27.6803H73.2813Z" fill="#2B35BA"/>
<path d="M87.9961 38.361L92.8487 9.59326H100.212L105.941 24.9256L111.634 9.59326H118.985L123.838 38.361H116.451L113.977 21.7963L107.226 38.361H104.272L97.8574 21.7963L95.3951 38.361H87.9961Z" fill="#2B35BA"/>
<path d="M137.123 9.59326H129.688V38.361H137.123V9.59326Z" fill="#2B35BA"/>
<path d="M151.681 9.59326V32.0299H160.594V38.361H144.246V9.59326H151.681Z" fill="#2B35BA"/>
<path d="M173.001 9.59326H165.566V38.361H173.001V9.59326Z" fill="#2B35BA"/>
<defs>
<linearGradient id="paint0_linear_2013_1998" x1="0" y1="23.9711" x2="47.6731" y2="23.9711" gradientUnits="userSpaceOnUse">
<stop stop-color="#00009E"/>
<stop offset="0.08" stop-color="#0800A1"/>
<stop offset="0.22" stop-color="#2100AA"/>
<stop offset="0.4" stop-color="#4900B9"/>
<stop offset="0.6" stop-color="#8000CE"/>
<stop offset="0.83" stop-color="#C500E9"/>
<stop offset="1" stop-color="#FF00FF"/>
</linearGradient>
</defs>
</svg>
